<svg width="812" height="276" viewBox="0 0 812 276" fill="none" xmlns="http://www.w3.org/2000/svg">
<path d="M52.1408 113.565H89.9683L71.5657 59.9936H71.1568L52.1408 113.565ZM55.2079 24.0064H88.128L142.722 170H109.393L98.3517 137.489H43.7574L32.3069 170H0.000213734L55.2079 24.0064ZM198.251 113.565H236.078L217.676 59.9936H217.267L198.251 113.565ZM201.318 24.0064H234.238L288.832 170H255.503L244.462 137.489H189.868L178.417 170H146.11L201.318 24.0064ZM344.361 113.565H382.189L363.786 59.9936H363.377L344.361 113.565ZM347.428 24.0064H380.348L434.943 170H401.614L390.572 137.489H335.978L324.527 170H292.221L347.428 24.0064Z" fill="white"/>
<path d="M447.313 62.2875H463.671V79.0543H464.08C471.305 66.2407 482.755 59.8339 498.432 59.8339C505.384 59.8339 511.177 60.7881 515.812 62.6965C520.446 64.6049 524.195 67.263 527.058 70.6709C529.92 74.0788 531.897 78.1683 532.987 82.9393C534.214 87.574 534.828 92.754 534.828 98.4792V168H517.447V96.4345C517.447 89.8914 515.539 84.7114 511.722 80.8946C507.905 77.0777 502.657 75.1693 495.978 75.1693C490.662 75.1693 486.027 75.9872 482.074 77.623C478.257 79.2588 475.053 81.5761 472.463 84.5751C469.873 87.574 467.897 91.1182 466.534 95.2077C465.307 99.1608 464.694 103.523 464.694 108.294V168H447.313V62.2875Z" fill="white"/>
<path d="M603.242 63.0017C632.915 63.3773 656.853 87.5482 656.853 117.31L656.849 118.011C656.474 147.684 632.302 171.623 602.541 171.623L601.838 171.619C572.399 171.246 548.605 147.451 548.232 118.011L548.227 117.31C548.227 87.314 572.544 62.9968 602.541 62.9968L603.242 63.0017ZM602.541 138.077C595.239 138.077 588.588 140.736 583.815 144.363C580.835 146.627 578.997 148.919 577.989 150.81C584.867 155.859 593.355 158.843 602.541 158.843C611.726 158.843 620.213 155.859 627.09 150.81C626.082 148.919 624.246 146.627 621.266 144.363C616.493 140.736 609.842 138.077 602.541 138.077ZM602.541 75.7761C579.602 75.7761 561.006 94.3719 561.006 117.31C561.006 126.342 563.892 134.699 568.788 141.514C570.811 138.755 573.349 136.265 576.083 134.187C578.607 132.27 581.479 130.551 584.625 129.146C580.054 124.653 577.164 118.454 576.99 111.58L576.981 110.921C576.981 96.8047 588.425 85.3611 602.541 85.3611L603.2 85.3699C617.011 85.7197 628.099 97.0253 628.099 110.921L628.09 111.58C627.916 118.454 625.027 124.653 620.457 129.146C623.601 130.551 626.475 132.27 628.998 134.187C631.732 136.265 634.27 138.755 636.292 141.514C641.188 134.699 644.074 126.342 644.074 117.31C644.074 94.3721 625.479 75.7763 602.541 75.7761ZM602.541 98.1404C595.483 98.1404 589.76 103.863 589.76 110.921C589.761 117.978 595.483 123.7 602.541 123.7C609.598 123.7 615.32 117.978 615.32 110.921C615.32 103.863 609.598 98.1406 602.541 98.1404Z" fill="white"/>
<path d="M774.629 168H756.227L734.757 83.9617H734.348L713.083 168H694.272L660.329 62.2875H679.55L703.473 148.78H703.882L725.147 62.2875H744.163L766.246 148.78H766.655L790.374 62.2875H808.367L774.629 168Z" fill="white"/>
<path d="M6.54004 231H97.8707" stroke="white" stroke-width="4.79233"/>
<path d="M150.216 248.141C144.733 248 138.97 247.93 133.768 247.93C128.286 247.93 123.225 248 117.883 248.141V246.383C137.283 229.022 141.36 221.572 141.36 212.575C141.36 206.601 138.759 202.102 133.347 202.102C127.794 202.102 125.053 206.53 124.561 210.958L123.225 211.029C122.593 209.131 121.257 207.093 120.414 206.109C123.085 201.962 128.145 199.01 134.823 199.01C143.89 199.01 149.372 203.578 149.372 211.732C149.372 218.339 146.139 223.399 139.743 229.374C135.737 233.099 130.676 238.16 127.232 241.815C129.551 241.885 132.292 241.885 134.401 241.885C139.532 241.885 146.912 241.744 150.216 241.393C150.145 242.799 150.145 243.994 150.145 244.837C150.145 245.751 150.145 246.805 150.216 248.141ZM184.887 232.537C184.887 242.869 176.944 249.195 166.471 249.195C161.762 249.195 157.123 248.141 154.382 246.243C154.874 244.767 155.717 241.182 155.999 239.003L157.404 238.933C158.107 243.783 161.34 246.243 166.261 246.243C172.376 246.243 177.015 241.744 177.015 233.591C177.015 225.93 172.868 222.556 167.174 222.556C163.871 222.556 160.919 223.891 159.654 225.016L158.669 224.454C159.161 220.869 159.302 216.019 159.302 212.435C159.302 208.428 159.302 203.157 159.021 200.486L159.654 200.064C163.238 200.275 166.753 200.345 171.181 200.345C176.382 200.345 180.81 200.275 183.34 200.064C183.27 201.048 183.27 202.454 183.27 203.367C183.27 204.211 183.27 205.546 183.34 206.741C177.928 206.39 168.931 206.249 162.957 206.249C162.535 210.537 162.184 217.144 162.114 220.939C164.152 219.955 166.963 219.323 169.845 219.323C179.264 219.323 184.887 224.805 184.887 232.537ZM234.549 214.965C230.965 222.556 225.412 234.997 219.859 248C217.118 254.256 214.025 262.198 212.409 267.329C211.776 267.259 210.652 267.188 209.878 267.188C209.175 267.188 207.981 267.259 206.997 267.329L206.786 267.188C210.511 260.581 214.096 252.85 215.782 248.492C213.604 242.799 206.294 225.157 201.655 214.965L201.866 214.824C203.201 214.965 205.239 214.965 206.223 214.965C207.489 214.965 208.965 214.895 209.808 214.824C212.268 222.486 216.767 234.153 219.508 240.479H219.648C222.53 234.153 227.731 220.869 229.489 214.824C230.332 214.895 231.316 214.965 231.878 214.965C232.511 214.965 233.565 214.895 234.338 214.824L234.549 214.965ZM259.601 215.246C259.039 216.371 258.196 219.042 257.844 220.658L257.352 220.728C256.368 219.955 254.892 219.604 253.486 219.604C248.496 219.604 246.106 224.243 246.106 230.006V232.748C246.106 236.965 246.247 244.134 246.598 248.141C245.614 248.07 244.068 248 242.803 248C241.537 248 239.991 248.07 239.007 248.141C239.358 244.275 239.569 236.403 239.569 232.185V229.233C239.569 225.016 239.429 219.042 239.007 214.824C239.991 214.895 241.537 214.965 242.803 214.965C244.068 214.965 245.403 214.895 246.176 214.824C245.966 216.511 245.755 219.744 245.755 221.994H246.036C248.496 216.933 251.799 214.332 255.946 214.332C257.352 214.332 258.617 214.543 259.461 214.824L259.601 215.246ZM282.063 237.316C282.063 245.118 275.596 248.843 268.356 248.843C264.842 248.843 260.976 247.789 259.289 246.875C259.43 245.259 259.922 242.658 260.625 240.479H261.749C262.663 244.275 265.826 246.102 269.341 246.102C272.925 246.102 276.088 244.275 276.088 240.058C276.088 236.121 273.698 234.856 268.638 233.169C264.42 231.764 260.695 229.866 260.695 223.891C260.695 216.511 267.232 213.981 272.503 213.981C275.877 213.981 279.392 214.684 281.219 215.597C280.657 217.003 279.954 219.674 279.602 221.712H278.478C277.775 218.62 276.229 216.511 272.293 216.511C269.2 216.511 266.388 218.058 266.388 221.783C266.388 225.227 268.778 226.633 272.855 227.898C278.689 229.725 282.063 232.115 282.063 237.316ZM336.197 231.482C336.197 241.744 329.45 249.125 318.696 249.125C305.833 249.125 301.194 240.128 301.194 231.482C301.194 221.572 307.379 213.84 318.696 213.84C330.504 213.84 336.197 221.08 336.197 231.482ZM328.817 231.482C328.817 224.665 326.497 216.511 318.766 216.511C310.894 216.511 308.644 224.665 308.644 231.482C308.644 237.949 310.894 246.383 318.766 246.383C326.497 246.383 328.817 238.23 328.817 231.482ZM363.436 195.847C362.663 197.252 361.679 199.994 361.257 201.962L360.344 202.032C359.711 200.626 358.446 199.22 356.197 199.22C351.909 199.22 350.574 203.086 350.574 206.179C350.574 208.709 351.277 212.505 351.417 215.035H359.219V217.776H351.417C351.347 220.869 351.347 223.891 351.347 226V230.428C351.347 234.645 351.487 243.994 351.909 248.141C350.925 248.07 349.379 248 348.043 248C346.778 248 345.302 248.07 344.248 248.141C344.67 244.134 344.81 234.645 344.81 230.428V226C344.81 223.891 344.81 220.869 344.74 217.776H339.117V215.035H344.74V213.559C344.74 204.211 350.503 194.722 359.852 194.722C361.257 194.722 362.663 195.003 363.296 195.355L363.436 195.847ZM386.368 202.524C386.368 204.773 384.54 206.671 382.291 206.671C380.042 206.671 378.214 204.773 378.214 202.524C378.214 200.345 380.042 198.447 382.291 198.447C384.54 198.447 386.368 200.345 386.368 202.524ZM386.086 248.141C385.102 248.07 383.556 248 382.291 248C381.026 248 379.479 248.07 378.495 248.141C378.847 244.275 378.987 236.403 378.987 232.185V229.233C378.987 225.016 378.847 218.831 378.495 214.824C379.479 214.895 381.026 214.965 382.291 214.965C383.556 214.965 385.102 214.895 386.086 214.824C385.735 218.971 385.594 225.016 385.594 229.233V232.185C385.594 236.403 385.735 244.134 386.086 248.141ZM425.426 248.141C424.583 248.07 423.036 248 421.841 248C420.506 248 418.96 248.07 418.116 248.141C418.397 243.783 418.538 235.7 418.538 230.428V228.319C418.538 223.61 417.624 218.128 411.509 218.128C405.816 218.128 402.512 222.275 402.512 229.233V233.942C402.512 238.16 402.653 244.134 403.004 248.141C402.02 248.07 400.544 248 399.209 248C397.944 248 396.468 248.07 395.484 248.141C395.835 244.204 395.976 236.403 395.976 232.185V229.233C395.976 225.016 395.835 219.463 395.484 214.824C396.819 214.895 397.944 214.965 399.209 214.965C400.404 214.965 401.669 214.895 402.653 214.824C402.512 216.511 402.442 218.409 402.442 220.447H402.723C405.183 216.581 409.119 214.121 413.829 214.121C422.825 214.121 425.285 219.534 425.285 226.281C425.285 228.601 425.075 231.904 425.075 235.208V236.051C425.075 239.144 425.215 245.329 425.426 248.141ZM464.587 248.141C463.743 248.07 462.197 248 461.002 248C459.667 248 458.12 248.07 457.277 248.141C457.558 243.783 457.698 235.7 457.698 230.428V228.319C457.698 223.61 456.785 218.128 450.67 218.128C444.976 218.128 441.673 222.275 441.673 229.233V233.942C441.673 238.16 441.813 244.134 442.165 248.141C441.181 248.07 439.705 248 438.369 248C437.104 248 435.628 248.07 434.644 248.141C434.996 244.204 435.136 236.403 435.136 232.185V229.233C435.136 225.016 434.996 219.463 434.644 214.824C435.98 214.895 437.104 214.965 438.369 214.965C439.564 214.965 440.829 214.895 441.813 214.824C441.673 216.511 441.603 218.409 441.603 220.447H441.884C444.344 216.581 448.28 214.121 452.989 214.121C461.986 214.121 464.446 219.534 464.446 226.281C464.446 228.601 464.235 231.904 464.235 235.208V236.051C464.235 239.144 464.376 245.329 464.587 248.141ZM507.051 231.482C507.051 241.744 500.303 249.125 489.549 249.125C476.687 249.125 472.048 240.128 472.048 231.482C472.048 221.572 478.233 213.84 489.549 213.84C501.357 213.84 507.051 221.08 507.051 231.482ZM499.671 231.482C499.671 224.665 497.351 216.511 489.619 216.511C481.747 216.511 479.498 224.665 479.498 231.482C479.498 237.949 481.747 246.383 489.619 246.383C497.351 246.383 499.671 238.23 499.671 231.482ZM542.303 214.965C537.523 225.859 530.846 241.744 528.597 248.141C527.894 248.07 526.629 248 525.855 248C525.012 248 524.028 248.07 523.114 248.141C521.216 242.447 514.328 225.508 509.83 214.965L510.041 214.824C511.657 214.965 513.063 214.965 514.117 214.965C515.312 214.965 516.929 214.895 517.913 214.824C520.373 222.907 524.379 233.732 527.472 241.393H527.683C530.635 234.786 535.696 221.15 537.383 214.824C538.156 214.895 538.929 214.965 539.632 214.965C540.194 214.965 541.319 214.895 542.092 214.824L542.303 214.965ZM575.52 247.438C574.114 247.93 571.935 248.351 570.037 248.351C566.312 248.351 564.484 246.383 564.133 243.431C562.024 246.032 558.51 248.562 553.73 248.562C548.81 248.562 544.312 245.751 544.312 239.355C544.312 233.591 547.897 230.78 554.152 229.585C563.29 227.827 564.203 227.195 564.203 225.438V224.594C564.203 220.026 562.235 216.863 556.683 216.863C552.817 216.863 550.146 219.323 549.443 223.891H548.107C547.897 221.502 547.405 219.182 547.053 217.776C549.584 215.387 554.504 213.84 558.932 213.84C569.334 213.84 570.951 219.323 570.951 226.422C570.951 229.725 570.599 236.895 570.599 240.409C570.599 243.783 571.513 245.891 574.325 245.891C574.887 245.891 575.238 245.891 575.52 245.821V247.438ZM564.274 229.866C554.855 231.412 551.06 233.099 551.06 238.511C551.06 243.361 553.66 244.978 556.683 244.978C559.705 244.978 563.079 242.939 563.992 239.706C564.203 237.316 564.274 233.169 564.274 229.866ZM596.813 246.243C594.494 247.719 591.19 248.562 588.379 248.562C582.967 248.562 580.999 245.329 580.999 239.847C580.999 234.716 581.42 225.789 581.42 217.776H575.938V215.035H581.491C581.491 213.489 581.491 210.607 581.35 207.796C583.107 207.233 586.411 206.038 588.098 204.914L588.59 205.195C588.309 208.006 588.028 212.645 588.028 215.035H596.532V217.776H587.957C587.746 223.751 587.535 231.412 587.535 237.105C587.535 242.096 588.309 245.048 592.385 245.048C593.861 245.048 595.478 244.696 596.392 244.275L596.673 244.415L596.813 246.243ZM610.384 202.524C610.384 204.773 608.557 206.671 606.308 206.671C604.059 206.671 602.231 204.773 602.231 202.524C602.231 200.345 604.059 198.447 606.308 198.447C608.557 198.447 610.384 200.345 610.384 202.524ZM610.103 248.141C609.119 248.07 607.573 248 606.308 248C605.043 248 603.496 248.07 602.512 248.141C602.864 244.275 603.004 236.403 603.004 232.185V229.233C603.004 225.016 602.864 218.831 602.512 214.824C603.496 214.895 605.043 214.965 606.308 214.965C607.573 214.965 609.119 214.895 610.103 214.824C609.752 218.971 609.611 225.016 609.611 229.233V232.185C609.611 236.403 609.752 244.134 610.103 248.141ZM652.746 231.482C652.746 241.744 645.999 249.125 635.245 249.125C622.382 249.125 617.743 240.128 617.743 231.482C617.743 221.572 623.928 213.84 635.245 213.84C647.053 213.84 652.746 221.08 652.746 231.482ZM645.366 231.482C645.366 224.665 643.047 216.511 635.315 216.511C627.443 216.511 625.194 224.665 625.194 231.482C625.194 237.949 627.443 246.383 635.315 246.383C643.047 246.383 645.366 238.23 645.366 231.482ZM690.388 248.141C689.545 248.07 687.998 248 686.803 248C685.468 248 683.922 248.07 683.078 248.141C683.359 243.783 683.5 235.7 683.5 230.428V228.319C683.5 223.61 682.586 218.128 676.471 218.128C670.778 218.128 667.474 222.275 667.474 229.233V233.942C667.474 238.16 667.615 244.134 667.966 248.141C666.982 248.07 665.506 248 664.171 248C662.906 248 661.43 248.07 660.446 248.141C660.797 244.204 660.938 236.403 660.938 232.185V229.233C660.938 225.016 660.797 219.463 660.446 214.824C661.781 214.895 662.906 214.965 664.171 214.965C665.366 214.965 666.631 214.895 667.615 214.824C667.474 216.511 667.404 218.409 667.404 220.447H667.685C670.145 216.581 674.081 214.121 678.791 214.121C687.787 214.121 690.248 219.534 690.248 226.281C690.248 228.601 690.037 231.904 690.037 235.208V236.051C690.037 239.144 690.177 245.329 690.388 248.141Z" fill="white"/>
<path d="M715.209 231H806.54" stroke="white" stroke-width="4.79233"/>
</svg>
