<svg width="841" height="197" viewBox="0 0 841 197" fill="none" xmlns="http://www.w3.org/2000/svg">
<g clip-path="url(#clip0_132_4380)">
<path d="M315.376 28.3054C327.191 26.7135 345.373 26.8669 352.853 37.588C373.567 76.387 396.793 115.263 416.28 154.676C419.138 160.448 422.801 164.303 413.48 165.147C408.896 165.55 386.973 165.703 383.905 164.399C379.8 162.635 373.26 144.971 369.98 140.521L368.081 139.582L286.741 139.543C285.571 139.467 284.823 139.754 283.941 140.521C280.546 143.571 275.444 161.676 271.493 163.997C268.654 165.646 244.162 165.627 239.482 165.186C235.608 164.821 233.441 163.881 234.745 159.432C256.264 122.685 273.296 82.064 294.681 45.413C299.802 36.629 304.482 29.8013 315.395 28.3437L315.376 28.3054ZM354.368 112.175C354.617 110.794 354.061 109.854 353.62 108.665C350.398 99.7662 341.69 85.2093 336.895 76.2336C335.093 72.8581 331.525 65.0714 329.684 62.6549C327.325 59.5862 325.177 61.1014 323.316 63.633C318.234 70.595 303.331 100.226 300.282 108.646C299.84 109.835 299.265 110.775 299.553 112.156H354.368V112.175Z" fill="#014E5C"/>
<path d="M453.243 154.675C446.626 141.288 439.568 127.959 432.318 114.668V155.807C432.318 160.947 436.48 165.128 441.639 165.128H450.424C459.745 164.303 456.101 160.448 453.243 154.675Z" fill="#014E5C"/>
<path d="M702.25 28.3241C733.551 25.9268 766.904 29.5708 798.435 27.9981C801.504 28.1899 803.249 30.2037 803.633 33.1956C804.093 36.7054 803.978 56.6898 802.885 59.0105C802.482 59.8735 802.041 60.6407 801.063 60.9667L707.773 61.2352C696.553 62.3284 692.046 66.1834 691.068 77.6141C690.224 87.4145 690.109 107.629 691.202 117.238C692.602 129.436 699.507 130.912 710.439 132.025L801.024 132.178C801.868 132.428 802.731 133.08 803.115 133.866C803.978 135.65 803.978 160.41 803.115 162.232C802.252 164.054 798.627 165.281 796.556 165.109C767.575 163.843 737.425 166.624 708.579 165.109C685.544 163.881 664.197 159.815 657.791 134.614C653.553 117.967 653.418 72.57 658.328 56.172C664.504 35.5163 682.686 29.8009 702.288 28.305L702.25 28.3241Z" fill="#014E5C"/>
<path d="M525.623 28.3441C558.977 24.7576 597.355 30.4921 631.245 28.018C635.733 27.9988 637.785 29.7441 638.303 34.1937C638.725 37.7993 638.744 55.6166 637.594 58.0906C637.191 58.9537 636.75 59.7209 635.772 60.0469L539.528 60.2195C528.193 58.0139 527.522 79.6094 534.81 80.9712C559.322 82.5055 586.154 78.9765 610.378 81.0095C642.83 83.7329 645.381 109.107 643.041 136.322C641.295 156.46 625.875 163.901 607.597 165.148C573.246 167.487 536.287 163.268 501.649 165.148C497.161 165.167 495.109 163.422 494.591 158.972C494.169 155.328 494.15 136.609 495.626 134.461C497.007 132.428 500.306 132.179 502.608 131.987C534.331 129.321 569.794 134.02 601.939 132.064C610.224 130.99 610.685 112.175 602.418 110.679C576.986 107.86 547.546 113.077 522.593 110.162C495.377 106.997 492.654 80.1656 494.629 57.8413C496.259 39.5446 507.94 30.2428 525.604 28.3441H525.623Z" fill="#014E5C"/>
<path d="M474.992 88.3177V155.808C474.992 160.948 470.811 165.129 465.652 165.129H441.639C436.48 165.129 432.318 160.948 432.318 155.808V88.3177C432.318 83.1586 436.48 78.9775 441.639 78.9775H465.652C470.811 78.9775 474.992 83.1586 474.992 88.3177Z" fill="#014E5C"/>
<path d="M474.994 35.3441V52.2599C474.994 56.7095 471.388 60.2959 466.957 60.2959H409.284C404.892 60.2959 400.845 57.8986 398.735 54.0628C395.724 48.5776 392.751 43.0924 389.817 37.588C386.25 31.374 389.011 27.3081 395.897 27.3081H466.957C471.388 27.3081 474.994 30.8946 474.994 35.3441Z" fill="#014E5C"/>
<g clip-path="url(#clip1_132_4380)">
<path d="M108.401 -0.252441C111.578 -0.252199 114.153 2.32296 114.153 5.49951V53.2886C114.153 56.4651 116.728 59.0405 119.905 59.0405H133.103C136.28 59.0408 138.855 61.6159 138.855 64.7925V77.9946C138.855 81.1712 141.431 83.7466 144.607 83.7466H192.373C195.549 83.7468 198.125 86.322 198.125 89.4985V107.642C198.125 110.818 195.549 113.394 192.373 113.394H144.607C141.43 113.394 138.855 115.969 138.855 119.146V132.347C138.855 135.524 136.28 138.099 133.103 138.099H119.904C116.727 138.099 114.152 140.674 114.152 143.851V191.447C114.152 194.623 111.577 197.198 108.4 197.199H90.4548C87.2782 197.199 84.7031 194.623 84.7029 191.447V143.851C84.7029 140.675 82.1274 138.099 78.9509 138.099H65.5486C62.372 138.099 59.7968 135.524 59.7966 132.347V119.146C59.7966 115.969 57.2212 113.394 54.0447 113.394H6.62378C3.4472 113.394 0.87202 110.819 0.871826 107.642V89.4985C0.871826 86.3218 3.44708 83.7466 6.62378 83.7466H54.0447C57.2211 83.7463 59.7964 81.171 59.7966 77.9946V64.7925C59.7966 61.6158 62.3719 59.0405 65.5486 59.0405H78.7537C81.93 59.0403 84.5054 56.465 84.5056 53.2886V5.49951C84.5056 2.32281 87.0809 -0.252441 90.2576 -0.252441H108.401ZM54.0447 138.1C57.2212 138.1 59.7966 140.675 59.7966 143.852V161.996C59.7964 165.172 57.2211 167.747 54.0447 167.748H35.9021C32.7255 167.748 30.1503 165.172 30.1501 161.996V143.852C30.1501 140.675 32.7254 138.1 35.9021 138.1H54.0447ZM162.75 138.1C165.926 138.1 168.502 140.675 168.502 143.852V161.996C168.502 165.172 165.926 167.747 162.75 167.748H144.606C141.43 167.748 138.854 165.172 138.854 161.996V143.852C138.854 140.675 141.429 138.1 144.606 138.1H162.75ZM88.6539 83.7456C86.4707 83.7456 84.7009 85.5154 84.7009 87.6985V109.44C84.7009 111.623 86.4707 113.393 88.6539 113.393H110.395C112.579 113.393 114.348 111.623 114.348 109.44V87.6985C114.348 85.5154 112.579 83.7456 110.395 83.7456H88.6539ZM166.75 25.396C169.926 25.3962 172.502 27.9714 172.502 31.1479V49.2905C172.502 52.4669 169.926 55.0422 166.75 55.0425H148.606C145.43 55.0425 142.854 52.4671 142.854 49.2905V31.1479C142.854 27.9712 145.429 25.396 148.606 25.396H166.75ZM54.0447 25.3931C57.2212 25.3933 59.7966 27.9685 59.7966 31.145V49.2886C59.7964 52.465 57.2211 55.0403 54.0447 55.0405H35.9021C32.7255 55.0405 30.1503 52.4651 30.1501 49.2886V31.145C30.1501 27.9683 32.7254 25.3931 35.9021 25.3931H54.0447Z" fill="#014E5C"/>
</g>
</g>
<defs>
<clipPath id="clip0_132_4380">
<rect width="840" height="196" fill="white" transform="translate(0.756714 0.17041)"/>
</clipPath>
<clipPath id="clip1_132_4380">
<rect width="197.647" height="197.647" fill="white" transform="translate(0.513428 -0.252441)"/>
</clipPath>
</defs>
</svg>
