<svg width="400" height="400" viewBox="0 0 400 400" fill="none" xmlns="http://www.w3.org/2000/svg">
<path d="M114.284 274.287C114.284 280.599 119.401 285.716 125.713 285.716H160C166.312 285.716 171.429 290.833 171.429 297.144V331.431C171.429 337.743 166.312 342.859 160 342.859H68.5712C62.2593 342.859 57.1426 347.976 57.1426 354.288V388.571C57.1426 394.883 52.0258 400 45.714 400H11.4286C5.11677 400 0 394.883 0 388.571V354.286C0 347.974 5.11677 342.857 11.4286 342.857H45.712C52.0239 342.857 57.1406 337.741 57.1406 331.429V240C57.1406 233.688 62.2574 228.571 68.5692 228.571H102.856C109.167 228.571 114.284 233.688 114.284 240V274.287ZM285.714 217.143C285.714 223.455 290.831 228.571 297.142 228.571H331.429C337.741 228.571 342.857 233.688 342.857 240V331.429C342.857 337.741 347.974 342.857 354.286 342.857H388.571C394.883 342.857 400 347.974 400 354.286V388.571C400 394.883 394.883 400 388.571 400H354.285C347.973 400 342.856 394.883 342.856 388.571V342.858C342.856 342.858 342.856 342.857 342.856 342.857C342.856 342.857 342.855 342.858 342.855 342.858V342.858C342.855 342.859 342.855 342.859 342.854 342.859H239.998C233.686 342.859 228.569 337.743 228.569 331.431V297.144C228.569 290.833 233.686 285.716 239.998 285.716H274.285C280.597 285.716 285.714 280.599 285.714 274.287V240.002C285.714 233.69 280.597 228.573 274.285 228.573H240C233.688 228.573 228.571 223.456 228.571 217.145V182.858C228.571 176.546 233.688 171.43 240 171.43H285.714V217.143ZM400 45.7149C400 52.0268 394.883 57.1436 388.571 57.1436H354.286C347.974 57.1436 342.857 62.2603 342.857 68.5722V160.001C342.857 166.313 337.741 171.43 331.429 171.43H285.714V125.715C285.714 119.403 280.597 114.286 274.285 114.286H239.999C233.687 114.286 228.57 119.403 228.57 125.715V160C228.57 166.312 223.454 171.429 217.142 171.429H182.855C176.544 171.429 171.427 166.312 171.427 160V125.715C171.427 119.403 166.31 114.286 159.998 114.286H125.715C119.403 114.286 114.286 119.403 114.286 125.715V160.001C114.286 166.313 119.403 171.43 125.715 171.43H160C166.312 171.43 171.429 176.546 171.429 182.858V217.143C171.429 223.455 176.545 228.571 182.857 228.571H217.142C223.454 228.571 228.57 233.688 228.57 240V274.286C228.57 280.598 223.454 285.715 217.142 285.715H182.855C176.544 285.715 171.427 280.598 171.427 274.286V240.002C171.427 233.69 166.31 228.573 159.998 228.573H125.714C119.402 228.573 114.285 223.456 114.285 217.145V182.858C114.285 176.546 109.168 171.43 102.857 171.43H68.5712C62.2593 171.43 57.1426 166.313 57.1426 160.001V68.5712C57.1426 62.2593 62.2593 57.1426 68.5712 57.1426H160C166.312 57.1426 171.429 62.2593 171.429 68.5712V102.858C171.429 109.169 176.545 114.286 182.857 114.286H217.141C223.453 114.286 228.569 109.169 228.569 102.858V68.5712C228.569 62.2593 233.686 57.1426 239.998 57.1426H342.855C342.855 57.1426 342.855 57.1428 342.855 57.1431C342.855 57.1433 342.856 57.1436 342.856 57.1436C342.856 57.1436 342.856 57.1433 342.856 57.1431V11.4286C342.856 5.11677 347.973 0 354.285 0H388.571C394.883 0 400 5.11677 400 11.4286V45.7149ZM57.1426 45.7149C57.1426 52.0268 52.0258 57.1436 45.714 57.1436H11.4286C5.11677 57.1436 0 52.0268 0 45.7149V11.4286C0 5.11677 5.11677 0 11.4286 0H45.714C52.0258 0 57.1426 5.11677 57.1426 11.4286V45.7149Z" fill="white" fill-opacity="0.08"/>
</svg>
