<svg width="24" height="24" viewBox="0 0 24 24" fill="none" xmlns="http://www.w3.org/2000/svg">
<path d="M4.36364 4.20363C4.60606 3.96121 4.88889 3.84 5.21212 3.84C5.53535 3.84 5.77778 3.96121 5.93939 4.20363L12 10.2642L18.0606 4.20363C18.2222 3.96121 18.4646 3.84 18.7879 3.84C19.1111 3.84 19.3939 3.96121 19.6364 4.20363C19.8788 4.44606 20 4.72888 20 5.05212C20 5.37535 19.8788 5.61777 19.6364 5.77939L13.5758 11.84L19.6364 17.9006C19.8788 18.0622 20 18.3046 20 18.6279C20 18.9511 19.8788 19.2339 19.6364 19.4764C19.3939 19.7188 19.1111 19.84 18.7879 19.84C18.4646 19.84 18.2222 19.7188 18.0606 19.4764L12 13.4158L5.93939 19.4764C5.77778 19.7188 5.53535 19.84 5.21212 19.84C4.88889 19.84 4.60606 19.7188 4.36364 19.4764C4.12121 19.2339 4 18.9511 4 18.6279C4 18.3046 4.12121 18.0622 4.36364 17.9006L10.4242 11.84L4.36364 5.77939C4.12121 5.61777 4 5.37535 4 5.05212C4 4.72888 4.12121 4.44606 4.36364 4.20363Z" fill="#014E5C"/>
</svg>
