<svg width="700" height="700" viewBox="0 0 700 700" fill="none" xmlns="http://www.w3.org/2000/svg">
<g clip-path="url(#clip0_894_2484)">
<path d="M100 680C100 691.046 91.0457 700 80 700H20C8.9543 700 0 691.046 0 680V620C0 608.954 8.95431 600 20 600H100V680ZM200 580C200 591.046 191.046 600 180 600H100V520C100 508.954 108.954 500 120 500H200V580ZM300 480C300 491.046 291.046 500 280 500H200V420C200 408.954 208.954 400 220 400H300V480ZM400 380C400 391.046 391.046 400 380 400H300V320C300 308.954 308.954 300 320 300H400V380ZM500 280C500 291.046 491.046 300 480 300H400V220C400 208.954 408.954 200 420 200H500V280ZM600 180C600 191.046 591.046 200 580 200H500V120C500 108.954 508.954 100 520 100H600V180ZM700 80C700 91.0457 691.046 100 680 100H600V20C600 8.9543 608.954 0 620 0H680C691.046 0 700 8.95431 700 20V80Z" fill="#014E5C"/>
<path d="M600 680C600 691.046 608.954 700 620 700H680C691.046 700 700 691.046 700 680V620C700 608.954 691.046 600 680 600H600V680ZM500 580C500 591.046 508.954 600 520 600H600V520C600 508.954 591.046 500 580 500H500V580ZM400 480C400 491.046 408.954 500 420 500H500V420C500 408.954 491.046 400 480 400H400V480ZM300 380C300 391.046 308.954 400 320 400H400V320C400 308.954 391.046 300 380 300H300V380ZM200 280C200 291.046 208.954 300 220 300H300V220C300 208.954 291.046 200 280 200H200V280ZM100 180C100 191.046 108.954 200 120 200H200V120C200 108.954 191.046 100 180 100H100V180ZM0 80C0 91.0457 8.95428 100 20 100H100V20C100 8.9543 91.0457 0 80 0H20C8.95428 0 0 8.95431 0 20V80Z" fill="#014E5C"/>
</g>
<defs>
<clipPath id="clip0_894_2484">
<rect width="700" height="700" fill="white"/>
</clipPath>
</defs>
</svg>
