<svg width="700" height="700" viewBox="0 0 700 700" fill="none" xmlns="http://www.w3.org/2000/svg">
<g clip-path="url(#clip0_175_1586)">
<path d="M120 100C108.954 100 100 108.954 100 120V580C100 591.046 108.954 600 120 600H580C591.046 600 600 591.046 600 580V120C600 108.954 591.046 100 580 100H120ZM500 480C500 491.046 491.046 500 480 500H220C208.954 500 200 491.046 200 480V420C200 408.954 208.954 400 220 400H480C491.046 400 500 408.954 500 420V480ZM300 280C300 291.046 291.046 300 280 300H220C208.954 300 200 291.046 200 280V220C200 208.954 208.954 200 220 200H280C291.046 200 300 208.954 300 220V280ZM500 280C500 291.046 491.046 300 480 300H420C408.954 300 400 291.046 400 280V220C400 208.954 408.954 200 420 200H480C491.046 200 500 208.954 500 220V280ZM700 680C700 691.046 691.046 700 680 700H20C8.9543 700 0 691.046 0 680V20C0 8.9543 8.95431 0 20 0H680C691.046 0 700 8.95431 700 20V680Z" fill="#014E5C"/>
</g>
<defs>
<clipPath id="clip0_175_1586">
<rect width="700" height="700" fill="white"/>
</clipPath>
</defs>
</svg>
