<svg width="700" height="700" viewBox="0 0 700 700" fill="none" xmlns="http://www.w3.org/2000/svg">
<g clip-path="url(#clip0_355_95)">
<path d="M500 100H120C108.954 100 100 108.954 100 120V580C100 591.046 108.954 600 120 600H580C591.046 600 600 591.046 600 580V200H680C691.046 200 700 208.954 700 220V680C700 691.046 691.046 700 680 700H20C8.9543 700 0 691.046 0 680V20C0 8.9543 8.9543 0 20 0H480C491.046 0 500 8.95431 500 20V100ZM600 200H520C508.954 200 500 191.046 500 180V100H580C591.046 100 600 108.954 600 120V200Z" fill="#014E5C"/>
<path d="M138.937 550V359.72H202.721C215.764 359.72 227.377 362.489 237.561 368.028C247.745 373.388 255.696 380.803 261.413 390.272C267.309 399.741 270.257 410.64 270.257 422.968C270.257 435.296 267.309 446.195 261.413 455.664C255.696 464.955 247.745 472.28 237.561 477.64C227.377 483 215.764 485.68 202.721 485.68H187.177V550H138.937ZM187.177 443.336H197.897C205.58 443.336 211.297 441.639 215.049 438.244C218.98 434.849 220.945 429.757 220.945 422.968C220.945 416 218.98 410.819 215.049 407.424C211.297 403.851 205.58 402.064 197.897 402.064H187.177V443.336ZM284.624 550V359.72H336.08C354.84 359.72 370.652 363.383 383.516 370.708C396.559 378.033 406.475 388.843 413.264 403.136C420.054 417.251 423.448 434.492 423.448 454.86C423.448 475.228 420.054 492.469 413.264 506.584C406.475 520.699 396.559 531.508 383.516 539.012C370.652 546.337 354.84 550 336.08 550H284.624ZM332.864 507.656H337.688C349.838 507.656 358.95 503.279 365.024 494.524C371.099 485.769 374.136 472.548 374.136 454.86C374.136 437.172 371.099 423.951 365.024 415.196C358.95 406.441 349.838 402.064 337.688 402.064H332.864V507.656ZM444.248 550V359.72H567.528V402.064H459.792L492.488 370.708V457.808L459.792 436.1H562.704V477.372H459.792L492.488 456.2V550H444.248Z" fill="#014E5C"/>
</g>
<defs>
<clipPath id="clip0_355_95">
<rect width="700" height="700" fill="white"/>
</clipPath>
</defs>
</svg>
