<svg width="128" height="128" viewBox="0 0 128 128" fill="none" xmlns="http://www.w3.org/2000/svg">
<path d="M0 124.343C0 126.363 1.63736 128 3.65714 128H32.9141C34.9339 128 36.5713 126.363 36.5713 124.343V109.714H21.9433C19.9235 109.714 18.2861 108.077 18.2861 106.057V21.9433C18.2861 19.9235 19.9235 18.2861 21.9433 18.2861H36.5713V3.65714C36.5713 1.63736 34.9339 0 32.9141 0H3.65714C1.63736 0 0 1.63736 0 3.65714V124.343ZM73.1426 87.7716C73.1426 89.7914 71.5052 91.4287 69.4854 91.4287H40.2284C38.2086 91.4287 36.5713 93.0661 36.5713 95.0859V109.714H69.4864C71.5062 109.714 73.1436 108.077 73.1436 106.057V95.0859C73.1436 93.0661 74.7809 91.4287 76.8007 91.4287H106.057C108.077 91.4287 109.714 89.7914 109.714 87.7716V73.1426H76.7997C74.7799 73.1426 73.1426 74.7799 73.1426 76.7997V87.7716ZM109.714 73.1426H124.343C126.363 73.1426 128 71.5052 128 69.4854V58.5146C128 56.4948 126.363 54.8574 124.343 54.8574H109.714V73.1426ZM109.714 40.2284C109.714 38.2086 108.077 36.5713 106.057 36.5713H76.8007C74.7809 36.5713 73.1436 34.9339 73.1436 32.9141V21.9433C73.1436 19.9235 71.5062 18.2861 69.4864 18.2861H36.5713V32.9141C36.5713 34.9339 38.2086 36.5713 40.2284 36.5713H69.4854C71.5052 36.5713 73.1426 38.2086 73.1426 40.2284V51.2003C73.1426 53.2201 74.7799 54.8574 76.7997 54.8574H109.714V40.2284Z" fill="#014E5C"/>
</svg>
