<svg width="501" height="218" viewBox="0 0 501 218" fill="none" xmlns="http://www.w3.org/2000/svg">
<g clip-path="url(#clip0_255_1367)">
<path d="M173.5 233.5L274 -7" stroke="#01282F" stroke-width="5"/>
<path d="M248.112 128.216L240.776 116.008H245.704L250.38 123.904L255.028 116.008H259.928L252.508 128.328V136H248.112V128.216ZM267.488 116.008H282.44V119.704H271.884V123.988H281.572V127.404H271.884V132.304H282.664V136H267.488V116.008ZM296.564 128.272H301.744L299.224 120.936H299.168L296.564 128.272ZM296.984 116.008H301.492L308.968 136H304.404L302.892 131.548H295.416L293.848 136H289.424L296.984 116.008ZM320.968 125.052H325.784C326.792 125.052 327.548 124.828 328.052 124.38C328.556 123.932 328.808 123.204 328.808 122.196C328.808 121.225 328.556 120.525 328.052 120.096C327.548 119.648 326.792 119.424 325.784 119.424H320.968V125.052ZM316.572 116.008H327.352C328.248 116.008 329.051 116.157 329.76 116.456C330.488 116.736 331.104 117.128 331.608 117.632C332.131 118.136 332.523 118.724 332.784 119.396C333.064 120.049 333.204 120.759 333.204 121.524C333.204 122.7 332.952 123.717 332.448 124.576C331.963 125.435 331.16 126.088 330.04 126.536V126.592C330.581 126.741 331.029 126.975 331.384 127.292C331.739 127.591 332.028 127.955 332.252 128.384C332.476 128.795 332.635 129.252 332.728 129.756C332.84 130.26 332.915 130.764 332.952 131.268C332.971 131.585 332.989 131.959 333.008 132.388C333.027 132.817 333.055 133.256 333.092 133.704C333.148 134.152 333.223 134.581 333.316 134.992C333.428 135.384 333.587 135.72 333.792 136H329.396C329.153 135.365 329.004 134.609 328.948 133.732C328.892 132.855 328.808 132.015 328.696 131.212C328.547 130.167 328.229 129.401 327.744 128.916C327.259 128.431 326.465 128.188 325.364 128.188H320.968V136H316.572V116.008ZM247.972 172.272H253.152L250.632 164.936H250.576L247.972 172.272ZM248.392 160.008H252.9L260.376 180H255.812L254.3 175.548H246.824L245.256 180H240.832L248.392 160.008ZM267.98 160.008H272.348L280.692 173.42H280.748V160.008H284.864V180H280.468L272.152 166.616H272.096V180H267.98V160.008ZM294.614 160.008H298.982L307.326 173.42H307.382V160.008H311.498V180H307.102L298.786 166.616H298.73V180H294.614V160.008ZM321.248 160.008H325.644V180H321.248V160.008ZM344.682 180H339.726L333.258 160.008H337.766L342.218 174.064H342.274L346.782 160.008H351.318L344.682 180ZM358.902 160.008H373.854V163.704H363.298V167.988H372.986V171.404H363.298V176.304H374.078V180H358.902V160.008ZM387.335 169.052H392.151C393.159 169.052 393.915 168.828 394.419 168.38C394.923 167.932 395.175 167.204 395.175 166.196C395.175 165.225 394.923 164.525 394.419 164.096C393.915 163.648 393.159 163.424 392.151 163.424H387.335V169.052ZM382.939 160.008H393.719C394.615 160.008 395.417 160.157 396.127 160.456C396.855 160.736 397.471 161.128 397.975 161.632C398.497 162.136 398.889 162.724 399.151 163.396C399.431 164.049 399.571 164.759 399.571 165.524C399.571 166.7 399.319 167.717 398.815 168.576C398.329 169.435 397.527 170.088 396.407 170.536V170.592C396.948 170.741 397.396 170.975 397.751 171.292C398.105 171.591 398.395 171.955 398.619 172.384C398.843 172.795 399.001 173.252 399.095 173.756C399.207 174.26 399.281 174.764 399.319 175.268C399.337 175.585 399.356 175.959 399.375 176.388C399.393 176.817 399.421 177.256 399.459 177.704C399.515 178.152 399.589 178.581 399.683 178.992C399.795 179.384 399.953 179.72 400.159 180H395.763C395.52 179.365 395.371 178.609 395.315 177.732C395.259 176.855 395.175 176.015 395.063 175.212C394.913 174.167 394.596 173.401 394.111 172.916C393.625 172.431 392.832 172.188 391.731 172.188H387.335V180H382.939V160.008ZM412.022 173.364C412.022 174.036 412.143 174.605 412.386 175.072C412.628 175.539 412.946 175.921 413.338 176.22C413.748 176.5 414.224 176.715 414.766 176.864C415.307 176.995 415.867 177.06 416.446 177.06C416.838 177.06 417.258 177.032 417.706 176.976C418.154 176.901 418.574 176.771 418.966 176.584C419.358 176.397 419.684 176.145 419.946 175.828C420.207 175.492 420.338 175.072 420.338 174.568C420.338 174.027 420.16 173.588 419.806 173.252C419.47 172.916 419.022 172.636 418.462 172.412C417.902 172.188 417.267 171.992 416.558 171.824C415.848 171.656 415.13 171.469 414.402 171.264C413.655 171.077 412.927 170.853 412.218 170.592C411.508 170.312 410.874 169.957 410.314 169.528C409.754 169.099 409.296 168.567 408.942 167.932C408.606 167.279 408.438 166.495 408.438 165.58C408.438 164.553 408.652 163.667 409.082 162.92C409.53 162.155 410.108 161.52 410.818 161.016C411.527 160.512 412.33 160.139 413.226 159.896C414.122 159.653 415.018 159.532 415.914 159.532C416.959 159.532 417.958 159.653 418.91 159.896C419.88 160.12 420.739 160.493 421.486 161.016C422.232 161.539 422.82 162.211 423.25 163.032C423.698 163.835 423.922 164.815 423.922 165.972H419.666C419.628 165.375 419.498 164.88 419.274 164.488C419.068 164.096 418.788 163.788 418.434 163.564C418.079 163.34 417.668 163.181 417.202 163.088C416.754 162.995 416.259 162.948 415.718 162.948C415.363 162.948 415.008 162.985 414.654 163.06C414.299 163.135 413.972 163.265 413.674 163.452C413.394 163.639 413.16 163.872 412.974 164.152C412.787 164.432 412.694 164.787 412.694 165.216C412.694 165.608 412.768 165.925 412.918 166.168C413.067 166.411 413.356 166.635 413.786 166.84C414.234 167.045 414.84 167.251 415.606 167.456C416.39 167.661 417.407 167.923 418.658 168.24C419.031 168.315 419.544 168.455 420.198 168.66C420.87 168.847 421.532 169.155 422.186 169.584C422.839 170.013 423.399 170.592 423.866 171.32C424.351 172.029 424.594 172.944 424.594 174.064C424.594 174.979 424.416 175.828 424.062 176.612C423.707 177.396 423.175 178.077 422.466 178.656C421.775 179.216 420.907 179.655 419.862 179.972C418.835 180.289 417.64 180.448 416.278 180.448C415.176 180.448 414.103 180.308 413.058 180.028C412.031 179.767 411.116 179.347 410.314 178.768C409.53 178.189 408.904 177.452 408.438 176.556C407.971 175.66 407.747 174.596 407.766 173.364H412.022ZM438.129 172.272H443.309L440.789 164.936H440.733L438.129 172.272ZM438.549 160.008H443.057L450.533 180H445.969L444.457 175.548H436.981L435.413 180H430.989L438.549 160.008ZM462.533 169.052H467.349C468.357 169.052 469.113 168.828 469.617 168.38C470.121 167.932 470.373 167.204 470.373 166.196C470.373 165.225 470.121 164.525 469.617 164.096C469.113 163.648 468.357 163.424 467.349 163.424H462.533V169.052ZM458.137 160.008H468.917C469.813 160.008 470.616 160.157 471.325 160.456C472.053 160.736 472.669 161.128 473.173 161.632C473.696 162.136 474.088 162.724 474.349 163.396C474.629 164.049 474.769 164.759 474.769 165.524C474.769 166.7 474.517 167.717 474.013 168.576C473.528 169.435 472.725 170.088 471.605 170.536V170.592C472.146 170.741 472.594 170.975 472.949 171.292C473.304 171.591 473.593 171.955 473.817 172.384C474.041 172.795 474.2 173.252 474.293 173.756C474.405 174.26 474.48 174.764 474.517 175.268C474.536 175.585 474.554 175.959 474.573 176.388C474.592 176.817 474.62 177.256 474.657 177.704C474.713 178.152 474.788 178.581 474.881 178.992C474.993 179.384 475.152 179.72 475.357 180H470.961C470.718 179.365 470.569 178.609 470.513 177.732C470.457 176.855 470.373 176.015 470.261 175.212C470.112 174.167 469.794 173.401 469.309 172.916C468.824 172.431 468.03 172.188 466.929 172.188H462.533V180H458.137V160.008ZM488.365 172.216L481.029 160.008H485.957L490.633 167.904L495.281 160.008H500.181L492.761 172.328V180H488.365V172.216Z" fill="#01282F"/>
<mask id="mask0_255_1367" style="mask-type:alpha" maskUnits="userSpaceOnUse" x="1" y="7" width="284" height="193">
<path d="M5.74813 82.4475C5.39684 71.909 6.62634 62.1608 9.43661 53.2031C12.2469 44.0697 16.4623 36.1658 22.0828 29.4914C27.7034 22.6414 34.7291 17.3721 43.1599 13.6837C51.7663 9.81952 61.6023 7.88746 72.6677 7.88746C81.0985 7.88746 89.0902 9.20478 96.6428 11.8394C104.371 14.474 111.133 18.2503 116.929 23.1683C122.726 28.0863 127.292 34.1459 130.63 41.3473C134.142 48.5486 135.899 56.6281 135.899 65.5858C135.899 74.8949 134.406 82.8866 131.42 89.561C128.434 96.2354 124.482 102.207 119.564 107.476C114.646 112.57 109.026 117.225 102.702 121.44C96.555 125.655 90.3197 129.871 83.9966 134.086C77.6735 138.126 71.526 142.517 65.5542 147.259C59.5824 152.002 54.3131 157.534 49.7464 163.858H136.953V196H1.53272C1.53272 185.286 3.02568 175.977 6.01159 168.073C9.17315 160.169 13.3886 153.143 18.6578 146.996C23.9271 140.673 30.0745 134.877 37.1002 129.607C44.3015 124.338 51.8541 118.981 59.758 113.536C63.7978 110.726 68.101 107.916 72.6677 105.105C77.2344 102.119 81.362 98.87 85.0505 95.3572C88.9146 91.8443 92.0761 87.8924 94.5351 83.5013C97.1698 79.1103 98.4871 74.1045 98.4871 68.4839C98.4871 59.5262 95.8525 52.5883 90.5832 47.6704C85.4896 42.5768 78.903 40.0299 70.8235 40.0299C65.3786 40.0299 60.7241 41.3473 56.8599 43.9819C53.1715 46.4409 50.1855 49.7781 47.9022 53.9935C45.6189 58.0332 43.9503 62.5999 42.8964 67.6936C42.0182 72.6115 41.5791 77.5295 41.5791 82.4475H5.74813ZM274.128 42.4011H197.988L190.611 84.2917L191.138 84.8186C196.231 79.725 201.676 76.1244 207.472 74.0167C213.268 71.7333 219.855 70.5916 227.232 70.5916C236.365 70.5916 244.445 72.2602 251.471 75.5974C258.496 78.9346 264.38 83.4135 269.123 89.034C274.041 94.6546 277.729 101.329 280.188 109.057C282.823 116.61 284.14 124.689 284.14 133.296C284.14 142.78 282.296 151.65 278.607 159.906C274.919 167.985 269.913 175.011 263.59 180.983C257.442 186.954 250.241 191.609 241.986 194.946C233.731 198.108 224.949 199.601 215.64 199.425C206.682 199.425 198.075 198.283 189.82 196C181.741 193.541 174.539 189.853 168.216 184.935C161.893 180.017 156.8 173.957 152.935 166.756C149.247 159.379 147.315 150.86 147.139 141.2H184.551C185.429 149.631 188.591 156.393 194.036 161.486C199.481 166.404 206.418 168.863 214.849 168.863C219.767 168.863 224.158 167.897 228.022 165.965C232.062 163.858 235.399 161.223 238.034 158.061C240.844 154.724 242.952 150.948 244.357 146.732C245.938 142.341 246.728 137.863 246.728 133.296C246.728 128.553 246.026 124.075 244.62 119.859C243.215 115.644 241.108 111.955 238.297 108.794C235.487 105.632 232.15 103.173 228.286 101.417C224.422 99.6604 219.943 98.7822 214.849 98.7822C208.175 98.7822 202.73 100.012 198.514 102.471C194.299 104.754 190.347 108.442 186.659 113.536H152.935L171.114 11.5759H274.128V42.4011Z" fill="black"/>
</mask>
<g mask="url(#mask0_255_1367)">
<path d="M0 0H270L179.5 218H0V0Z" fill="#01282F"/>
</g>
</g>
<defs>
<clipPath id="clip0_255_1367">
<rect width="501" height="218" fill="white"/>
</clipPath>
</defs>
</svg>
