<svg width="400" height="400" viewBox="0 0 400 400" fill="none" xmlns="http://www.w3.org/2000/svg">
<g clip-path="url(#clip0_709_906)">
<path d="M228.571 388.571C228.571 394.883 223.455 400 217.143 400H182.857C176.545 400 171.429 394.883 171.429 388.571V342.857H228.571V388.571ZM114.286 274.285C114.286 280.597 119.403 285.714 125.715 285.714H160C166.312 285.714 171.429 290.831 171.429 297.142V342.857H68.5712C62.2593 342.857 57.1426 337.741 57.1426 331.429V228.571H102.858C109.169 228.571 114.286 233.688 114.286 240V274.285ZM342.857 331.429C342.857 337.741 337.741 342.857 331.429 342.857H228.571V297.142C228.571 290.831 233.688 285.714 240 285.714H274.285C280.597 285.714 285.714 280.597 285.714 274.285V240C285.714 233.688 290.831 228.571 297.142 228.571H342.857V331.429ZM57.1426 228.571H11.4286C5.11674 228.571 0 223.455 0 217.143V182.857C0 176.545 5.11675 171.429 11.4286 171.429H57.1426V228.571ZM400 217.143C400 223.455 394.883 228.571 388.571 228.571H342.857V171.429H388.571C394.883 171.429 400 176.545 400 182.857V217.143ZM171.429 102.858C171.429 109.169 166.312 114.286 160 114.286H125.715C119.403 114.286 114.286 119.403 114.286 125.715V160C114.286 166.312 109.169 171.429 102.858 171.429H57.1426V68.5712C57.1426 62.2593 62.2593 57.1426 68.5711 57.1426H171.429V102.858ZM342.857 171.429H297.142C290.831 171.429 285.714 166.312 285.714 160V125.715C285.714 119.403 280.597 114.286 274.285 114.286H240C233.688 114.286 228.571 109.169 228.571 102.858V57.1426H331.429C337.741 57.1426 342.857 62.2593 342.857 68.5711V171.429ZM228.571 57.1426H171.429V11.4286C171.429 5.11674 176.545 0 182.857 0H217.143C223.455 0 228.571 5.11675 228.571 11.4286V57.1426Z" fill="white" fill-opacity="0.08"/>
</g>
<defs>
<clipPath id="clip0_709_906">
<rect width="400" height="400" fill="white"/>
</clipPath>
</defs>
</svg>
