<svg width="700" height="700" viewBox="0 0 700 700" fill="none" xmlns="http://www.w3.org/2000/svg">
<g clip-path="url(#clip0_160_8503)">
<path d="M280 0C291.046 0 300 8.95431 300 20V80C300 91.0457 291.046 100 280 100H120C108.954 100 100 108.954 100 120V580C100 591.046 108.954 600 120 600H580C591.046 600 600 591.046 600 580V420C600 408.954 608.954 400 620 400H680C691.046 400 700 408.954 700 420V680C700 691.046 691.046 700 680 700H20C8.9543 700 0 691.046 0 680V20C0 8.9543 8.95431 0 20 0H280ZM400 480C400 491.046 391.046 500 380 500H320C308.954 500 300 491.046 300 480V400H400V480ZM300 400H220C208.954 400 200 391.046 200 380V320C200 308.954 208.954 300 220 300H280C291.046 300 300 308.954 300 320V400ZM500 380C500 391.046 491.046 400 480 400H400V320C400 308.954 408.954 300 420 300H500V380ZM600 280C600 291.046 591.046 300 580 300H500V220C500 208.954 508.954 200 520 200H600V280ZM700 180C700 191.046 691.046 200 680 200H600V120C600 108.954 608.954 100 620 100H680C691.046 100 700 108.954 700 120V180Z" fill="#014E5C"/>
</g>
<defs>
<clipPath id="clip0_160_8503">
<rect width="700" height="700" fill="white"/>
</clipPath>
</defs>
</svg>
