<svg width="700" height="700" viewBox="0 0 700 700" fill="none" xmlns="http://www.w3.org/2000/svg">
<g clip-path="url(#clip0_171_1349)">
<path d="M480 500C491.046 500 500 491.046 500 480V400H580C591.046 400 600 408.954 600 420V480C600 491.046 608.954 500 620 500H680C691.046 500 700 508.954 700 520V680C700 691.046 691.046 700 680 700H520C508.954 700 500 691.046 500 680V620C500 608.954 491.046 600 480 600H420C408.954 600 400 591.046 400 580V500H480ZM400 500H120C108.954 500 100 491.046 100 480V400H400V500ZM100 400H20C8.9543 400 0 391.046 0 380V120C0 108.954 8.95431 100 20 100H100V400ZM500 400H400V100H480C491.046 100 500 108.954 500 120V400ZM400 100H100V20C100 8.9543 108.954 0 120 0H380C391.046 0 400 8.95431 400 20V100Z" fill="#014E5C"/>
</g>
<defs>
<clipPath id="clip0_171_1349">
<rect width="700" height="700" fill="white"/>
</clipPath>
</defs>
</svg>
