<svg width="700" height="700" viewBox="0 0 700 700" fill="none" xmlns="http://www.w3.org/2000/svg">
<g clip-path="url(#clip0_172_1405)">
<path d="M500 100H120C108.954 100 100 108.954 100 120V580C100 591.046 108.954 600 120 600H580C591.046 600 600 591.046 600 580V200H680C691.046 200 700 208.954 700 220V680C700 691.046 691.046 700 680 700H20C8.9543 700 0 691.046 0 680V20C0 8.9543 8.9543 0 20 0H480C491.046 0 500 8.95431 500 20V100ZM530 480C530 491.046 521.046 500 510 500H350C338.954 500 330 491.046 330 480V420C330 408.954 338.954 400 350 400H510C521.046 400 530 408.954 530 420V480ZM400 280C400 291.046 391.046 300 380 300H220C208.954 300 200 291.046 200 280V220C200 208.954 208.954 200 220 200H380C391.046 200 400 208.954 400 220V280ZM600 200H520C508.954 200 500 191.046 500 180V100H580C591.046 100 600 108.954 600 120V200Z" fill="#014E5C"/>
</g>
<defs>
<clipPath id="clip0_172_1405">
<rect width="700" height="700" fill="white"/>
</clipPath>
</defs>
</svg>
