<svg width="700" height="700" viewBox="0 0 700 700" fill="none" xmlns="http://www.w3.org/2000/svg">
<g clip-path="url(#clip0_160_8426)">
<path d="M700 680C700 691.046 691.046 700 680 700H20C8.9543 700 0 691.046 0 680V620C0 608.954 8.95431 600 20 600H680C691.046 600 700 608.954 700 620V680ZM200 480C200 491.046 191.046 500 180 500H120C108.954 500 100 491.046 100 480V320C100 308.954 108.954 300 120 300H180C191.046 300 200 308.954 200 320V480ZM400 480C400 491.046 391.046 500 380 500H320C308.954 500 300 491.046 300 480V320C300 308.954 308.954 300 320 300H380C391.046 300 400 308.954 400 320V480ZM600 480C600 491.046 591.046 500 580 500H520C508.954 500 500 491.046 500 480V320C500 308.954 508.954 300 520 300H580C591.046 300 600 308.954 600 320V480ZM700 180C700 191.046 691.046 200 680 200H20C8.9543 200 0 191.046 0 180V120C0 108.954 8.95431 100 20 100H180C191.046 100 200 91.0457 200 80V20C200 8.9543 208.954 0 220 0H480C491.046 0 500 8.95431 500 20V80C500 91.0457 508.954 100 520 100H680C691.046 100 700 108.954 700 120V180Z" fill="#014E5C"/>
</g>
<defs>
<clipPath id="clip0_160_8426">
<rect width="700" height="700" fill="white"/>
</clipPath>
</defs>
</svg>
