<svg width="700" height="700" viewBox="0 0 700 700" fill="none" xmlns="http://www.w3.org/2000/svg">
<path d="M100 480C100 491.046 108.954 500 120 500H580C591.046 500 600 491.046 600 480V433C600 421.954 608.954 413 620 413H680C691.046 413 700 421.954 700 433V493C700 504.046 691.046 513 680 513H620C608.954 513 600 521.954 600 533V580C600 591.046 591.046 600 580 600H120C108.954 600 100 591.046 100 580V533C100 521.954 91.0457 513 80 513H20C8.9543 513 0 504.046 0 493V433C0 421.954 8.95431 413 20 413H80C91.0457 413 100 421.954 100 433V480ZM100 280C100 291.046 91.0457 300 80 300H20C8.9543 300 0 291.046 0 280V120C0 108.954 8.95431 100 20 100H100V280ZM300 280C300 291.046 291.046 300 280 300H220C208.954 300 200 291.046 200 280V100H280C291.046 100 300 108.954 300 120V280ZM500 280C500 291.046 491.046 300 480 300H420C408.954 300 400 291.046 400 280V120C400 108.954 408.954 100 420 100H500V280ZM700 280C700 291.046 691.046 300 680 300H620C608.954 300 600 291.046 600 280V100H680C691.046 100 700 108.954 700 120V280ZM200 100H100V20C100 8.9543 108.954 0 120 0H180C191.046 0 200 8.95431 200 20V100ZM600 100H500V20C500 8.9543 508.954 0 520 0H580C591.046 0 600 8.95431 600 20V100Z" fill="#014E5C"/>
</svg>
