<svg width="700" height="700" viewBox="0 0 700 700" fill="none" xmlns="http://www.w3.org/2000/svg">
<g clip-path="url(#clip0_160_8624)">
<path d="M400 680C400 691.046 391.046 700 380 700H320C308.954 700 300 691.046 300 680V620C300 608.954 308.954 600 320 600H400V680ZM500 580C500 591.046 491.046 600 480 600H400V520C400 508.954 408.954 500 420 500H500V580ZM600 480C600 491.046 591.046 500 580 500H500V400H600V480ZM500 400H20C8.95432 400 0 391.046 0 380V320C0 308.954 8.9543 300 20 300H500V400ZM700 380C700 391.046 691.046 400 680 400H600V300H680C691.046 300 700 308.954 700 320V380ZM600 300H500V200H580C591.046 200 600 208.954 600 220V300ZM500 200H420C408.954 200 400 191.046 400 180V100H480C491.046 100 500 108.954 500 120V200ZM400 100H320C308.954 100 300 91.0457 300 80V20C300 8.9543 308.954 0 320 0H380C391.046 0 400 8.95431 400 20V100Z" fill="#014E5C"/>
</g>
<defs>
<clipPath id="clip0_160_8624">
<rect width="700" height="700" fill="white"/>
</clipPath>
</defs>
</svg>
