<svg width="700" height="700" viewBox="0 0 700 700" fill="none" xmlns="http://www.w3.org/2000/svg">
<g clip-path="url(#clip0_174_1568)">
<path d="M400 480C400 491.046 408.954 500 420 500H500V680C500 691.046 491.046 700 480 700H220C208.954 700 200 691.046 200 680V500H280C291.046 500 300 491.046 300 480V300H400V480ZM200 500H120C108.954 500 100 491.046 100 480V400H180C191.046 400 200 408.954 200 420V500ZM600 480C600 491.046 591.046 500 580 500H500V420C500 408.954 508.954 400 520 400H600V480ZM100 400H20C8.9543 400 0 391.046 0 380V220C0 208.954 8.95431 200 20 200H100V400ZM700 380C700 391.046 691.046 400 680 400H600V200H680C691.046 200 700 208.954 700 220V380ZM300 300H220C208.954 300 200 291.046 200 280V200H280C291.046 200 300 208.954 300 220V300ZM500 280C500 291.046 491.046 300 480 300H400V220C400 208.954 408.954 200 420 200H500V280ZM200 200H100V120C100 108.954 108.954 100 120 100H200V200ZM600 200H500V100H580C591.046 100 600 108.954 600 120V200ZM500 100H200V20C200 8.9543 208.954 0 220 0H480C491.046 0 500 8.95431 500 20V100Z" fill="#014E5C"/>
</g>
<defs>
<clipPath id="clip0_174_1568">
<rect width="700" height="700" fill="white"/>
</clipPath>
</defs>
</svg>
