<svg width="700" height="700" viewBox="0 0 700 700" fill="none" xmlns="http://www.w3.org/2000/svg">
<path d="M400 30C400 41.0457 408.954 50 420 50H530C541.046 50 550 58.9543 550 70V150H420C408.954 150 400 158.954 400 170V280C400 291.046 408.954 300 420 300H530C541.046 300 550 308.954 550 320V400H420C408.954 400 400 408.954 400 420V530C400 541.046 408.954 550 420 550H550V630C550 641.046 541.046 650 530 650H420C408.954 650 400 658.954 400 670V680C400 691.046 391.046 700 380 700H320C308.954 700 300 691.046 300 680V670C300 658.954 291.046 650 280 650H170C158.954 650 150 641.046 150 630V550H280C291.046 550 300 541.046 300 530V420C300 408.954 291.046 400 280 400H170C158.954 400 150 391.046 150 380V300H280C291.046 300 300 291.046 300 280V170C300 158.954 291.046 150 280 150H150V70C150 58.9543 158.954 50 170 50H280C291.046 50 300 41.0457 300 30V20C300 8.9543 308.954 0 320 0H380C391.046 0 400 8.95431 400 20V30ZM150 550H70C58.9543 550 50 541.046 50 530V470C50 458.954 58.9543 450 70 450H130C141.046 450 150 458.954 150 470V550ZM650 530C650 541.046 641.046 550 630 550H550V400H630C641.046 400 650 408.954 650 420V530ZM150 300H70C58.9543 300 50 291.046 50 280V170C50 158.954 58.9543 150 70 150H150V300ZM650 230C650 241.046 641.046 250 630 250H570C558.954 250 550 241.046 550 230V150H630C641.046 150 650 158.954 650 170V230Z" fill="#014E5C"/>
</svg>
