<svg width="700" height="700" viewBox="0 0 700 700" fill="none" xmlns="http://www.w3.org/2000/svg">
<path d="M200 580C200 591.046 191.046 600 180 600H120C108.954 600 100 591.046 100 580V520C100 508.954 108.954 500 120 500H200V580ZM600 580C600 591.046 591.046 600 580 600H420C408.954 600 400 591.046 400 580V520C400 508.954 408.954 500 420 500H480C491.046 500 500 491.046 500 480V420C500 408.954 508.954 400 520 400H580C591.046 400 600 408.954 600 420V580ZM300 480C300 491.046 291.046 500 280 500H200V420C200 408.954 208.954 400 220 400H300V480ZM400 380C400 391.046 391.046 400 380 400H300V320C300 308.954 308.954 300 320 300H400V380ZM300 180C300 191.046 291.046 200 280 200H220C208.954 200 200 208.954 200 220V280C200 291.046 191.046 300 180 300H120C108.954 300 100 291.046 100 280V120C100 108.954 108.954 100 120 100H280C291.046 100 300 108.954 300 120V180ZM500 280C500 291.046 491.046 300 480 300H400V220C400 208.954 408.954 200 420 200H500V280ZM600 180C600 191.046 591.046 200 580 200H500V120C500 108.954 508.954 100 520 100H580C591.046 100 600 108.954 600 120V180Z" fill="#014E5C"/>
</svg>
